<?xml version="1.0" encoding="iso-8859-1"?>
<!-- Uploaded to: SVG Repo, www.svgrepo.com, Generator: SVG Repo Mixer Tools -->
<svg height="800px" width="800px" version="1.1" id="Layer_1" xmlns="http://www.w3.org/2000/svg" xmlns:xlink="http://www.w3.org/1999/xlink" 
	 viewBox="0 0 512 512" xml:space="preserve">
<path style="fill:#E5563C;" d="M426.667,0H85.333C80.621,0,76.8,3.821,76.8,8.533v307.2c0,4.713,3.821,8.533,8.533,8.533h34.133
	H153.6l42.667,8.533l42.667-8.533h34.133l42.667,8.533l42.667-8.533h34.133L409.6,332.8l17.067-8.533
	c4.713,0,8.533-3.821,8.533-8.533V8.533C435.2,3.821,431.379,0,426.667,0z"/>
<g>
	<path style="fill:#FDD042;" d="M298.667,384h-85.333c-4.713,0-8.533,3.821-8.533,8.533v85.333c0,4.713,3.821,8.533,8.533,8.533
		h85.333c4.713,0,8.533-3.821,8.533-8.533v-85.333C307.2,387.821,303.379,384,298.667,384z"/>
	<path style="fill:#FDD042;" d="M460.8,384h-68.267c-4.713,0-8.533,3.821-8.533,8.533v85.333c0,4.713,3.821,8.533,8.533,8.533H460.8
		c4.713,0,8.533-3.821,8.533-8.533v-85.333C469.333,387.821,465.513,384,460.8,384z"/>
	<path style="fill:#FDD042;" d="M119.467,384H51.2c-4.713,0-8.533,3.821-8.533,8.533v85.333c0,4.713,3.821,8.533,8.533,8.533h68.267
		c4.713,0,8.533-3.821,8.533-8.533v-85.333C128,387.821,124.179,384,119.467,384z"/>
</g>
<g>
	<path style="fill:#F2C127;" d="M307.2,392.533c0-4.713-3.821-8.533-8.533-8.533h-85.333c-4.713,0-8.533,3.821-8.533,8.533v17.6
		h102.4V392.533z"/>
	<path style="fill:#F2C127;" d="M469.333,392.533c0-4.713-3.821-8.533-8.533-8.533h-68.267c-4.713,0-8.533,3.821-8.533,8.533v17.6
		h85.333V392.533z"/>
	<path style="fill:#F2C127;" d="M128,392.533c0-4.713-3.821-8.533-8.533-8.533H51.2c-4.713,0-8.533,3.821-8.533,8.533v17.6H128
		V392.533z"/>
</g>
<g>
	<path style="fill:#FDDD85;" d="M477.867,324.267h-85.333c-4.713,0-8.533,3.821-8.533,8.533v17.067c0,4.713,3.821,8.533,8.533,8.533
		l51.2,8.533l34.133-8.533c4.713,0,8.533-3.821,8.533-8.533V332.8C486.4,328.087,482.579,324.267,477.867,324.267z"/>
	<path style="fill:#FDDD85;" d="M358.4,324.267h-85.333c-4.713,0-8.533,3.821-8.533,8.533v17.067c0,4.713,3.821,8.533,8.533,8.533
		l42.667,8.533L358.4,358.4c4.713,0,8.533-3.821,8.533-8.533V332.8C366.933,328.087,363.113,324.267,358.4,324.267z"/>
	<path style="fill:#FDDD85;" d="M238.933,324.267H153.6c-4.713,0-8.533,3.821-8.533,8.533v17.067c0,4.713,3.821,8.533,8.533,8.533
		l42.667,8.533l42.667-8.533c4.713,0,8.533-3.821,8.533-8.533V332.8C247.467,328.087,243.646,324.267,238.933,324.267z"/>
	<path style="fill:#FDDD85;" d="M119.467,324.267H34.133c-4.713,0-8.533,3.821-8.533,8.533v17.067c0,4.713,3.821,8.533,8.533,8.533
		l42.667,8.533l42.667-8.533c4.713,0,8.533-3.821,8.533-8.533V332.8C128,328.087,124.179,324.267,119.467,324.267z"/>
</g>
<path style="fill:#FDD042;" d="M494.933,358.4H17.067c-4.713,0-8.533,3.821-8.533,8.533V384c0,4.713,3.821,8.533,8.533,8.533
	h477.867c4.713,0,8.533-3.821,8.533-8.533v-17.067C503.467,362.221,499.646,358.4,494.933,358.4z"/>
<path style="fill:#FDDD85;" d="M494.933,477.867H17.067c-4.713,0-8.533,3.821-8.533,8.533v17.067c0,4.713,3.821,8.533,8.533,8.533
	h477.867c4.713,0,8.533-3.821,8.533-8.533V486.4C503.467,481.688,499.646,477.867,494.933,477.867z"/>
<path style="fill:#CF442B;" d="M102.4,315.733V8.533c0-4.713,3.821-8.533,8.533-8.533h-25.6C80.621,0,76.8,3.821,76.8,8.533v307.2
	c0,4.713,3.821,8.533,8.533,8.533h25.6C106.221,324.267,102.4,320.446,102.4,315.733z"/>
<path style="fill:#B83C26;" d="M298.667,0h-85.333v128c0,4.713,3.821,8.533,8.533,8.533h68.267c4.713,0,8.533-3.821,8.533-8.533V0z"
	/>
<g>
	<path style="fill:#F18863;" d="M196.267,213.333H128c-4.713,0-8.533-3.821-8.533-8.533c0-4.713,3.821-8.533,8.533-8.533h68.267
		c4.713,0,8.533,3.821,8.533,8.533C204.8,209.513,200.979,213.333,196.267,213.333z"/>
	<path style="fill:#F18863;" d="M213.333,247.467H128c-4.713,0-8.533-3.821-8.533-8.533c0-4.713,3.821-8.533,8.533-8.533h85.333
		c4.713,0,8.533,3.821,8.533,8.533C221.867,243.646,218.046,247.467,213.333,247.467z"/>
	<path style="fill:#F18863;" d="M230.4,281.6H128c-4.713,0-8.533-3.821-8.533-8.533s3.821-8.533,8.533-8.533h102.4
		c4.713,0,8.533,3.821,8.533,8.533S235.113,281.6,230.4,281.6z"/>
	<path style="fill:#F18863;" d="M290.133,289.067c-4.124,0-7.467-3.343-7.467-7.467v-17.067c0-4.124,3.343-7.467,7.467-7.467
		c4.124,0,7.467,3.343,7.467,7.467V281.6C297.6,285.724,294.257,289.067,290.133,289.067z"/>
	<path style="fill:#F18863;" d="M264.533,289.067c-4.124,0-7.467-3.343-7.467-7.467v-17.067c0-4.124,3.343-7.467,7.467-7.467
		c4.124,0,7.467,3.343,7.467,7.467V281.6C272,285.724,268.657,289.067,264.533,289.067z"/>
	<path style="fill:#F18863;" d="M307.2,289.067c-4.124,0-7.467-3.343-7.467-7.467v-17.067c0-4.124,3.343-7.467,7.467-7.467
		c4.124,0,7.467,3.343,7.467,7.467V281.6C314.667,285.724,311.324,289.067,307.2,289.067z"/>
	<path style="fill:#F18863;" d="M349.867,289.067c-4.124,0-7.467-3.343-7.467-7.467v-17.067c0-4.124,3.343-7.467,7.467-7.467
		c4.124,0,7.467,3.343,7.467,7.467V281.6C357.333,285.724,353.99,289.067,349.867,289.067z"/>
	<path style="fill:#F18863;" d="M366.933,289.067c-4.124,0-7.467-3.343-7.467-7.467v-17.067c0-4.124,3.343-7.467,7.467-7.467
		c4.124,0,7.467,3.343,7.467,7.467V281.6C374.4,285.724,371.057,289.067,366.933,289.067z"/>
	<path style="fill:#F18863;" d="M384,289.067c-4.124,0-7.467-3.343-7.467-7.467v-17.067c0-4.124,3.343-7.467,7.467-7.467
		c4.124,0,7.467,3.343,7.467,7.467V281.6C391.467,285.724,388.124,289.067,384,289.067z"/>
</g>
<path style="fill:#B83C26;" d="M201.598,95.737l-42.667-34.133c-3.117-2.494-7.546-2.494-10.662,0l-42.667,34.133
	c-3.679,2.944-4.276,8.315-1.332,11.995c2.945,3.68,8.315,4.276,11.995,1.332L128,99.675V128h-8.533
	c-4.713,0-8.533,3.821-8.533,8.533s3.821,8.533,8.533,8.533h68.267c4.713,0,8.533-3.821,8.533-8.533S192.446,128,187.733,128H179.2
	V99.675l11.735,9.389c3.634,2.906,9.091,2.297,11.995-1.332C205.874,104.051,205.277,98.681,201.598,95.737z M162.133,128h-17.067
	V86.021l8.533-6.827l8.533,6.827V128z"/>
<path style="fill:#EBEBEC;" d="M384,59.733H264.533c-4.713,0-8.533,3.821-8.533,8.533v153.6c0,4.713,3.821,8.533,8.533,8.533H384
	c4.713,0,8.533-3.821,8.533-8.533v-153.6C392.533,63.554,388.713,59.733,384,59.733z"/>
<path style="fill:#D7D8D9;" d="M273.067,221.867v-153.6c0-4.713,3.821-8.533,8.533-8.533h-17.067c-4.713,0-8.533,3.821-8.533,8.533
	v153.6c0,4.713,3.821,8.533,8.533,8.533H281.6C276.887,230.4,273.067,226.579,273.067,221.867z"/>
<g>
	<path style="fill:#C3C4C6;" d="M349.867,119.467h-51.2c-4.713,0-8.533-3.821-8.533-8.533s3.821-8.533,8.533-8.533h51.2
		c4.713,0,8.533,3.821,8.533,8.533S354.579,119.467,349.867,119.467z"/>
	<path style="fill:#C3C4C6;" d="M349.867,153.6h-51.2c-4.713,0-8.533-3.821-8.533-8.533c0-4.713,3.821-8.533,8.533-8.533h51.2
		c4.713,0,8.533,3.821,8.533,8.533C358.4,149.779,354.579,153.6,349.867,153.6z"/>
	<path style="fill:#C3C4C6;" d="M349.867,187.733h-51.2c-4.713,0-8.533-3.821-8.533-8.533c0-4.713,3.821-8.533,8.533-8.533h51.2
		c4.713,0,8.533,3.821,8.533,8.533C358.4,183.913,354.579,187.733,349.867,187.733z"/>
</g>
</svg>